# xmcd
#
# Track frame offsets:
#	150
#	8784
#	21515
#	31798
#	41762
#	52177
#	60927
#	71501
#	83553
#	91497
#	98529
#	110527
#	119184
#	128996
#	142327
#	153649
#	162919
#	172608
#	183457
#	192607
#	201203
#	212272
#	228277
#	242885
#	253023
#
# Disc length: 3530 seconds
#
# Revision: 0
# Processed by: cddbd v1.5.2PL0 Copyright (c) Steve Scherf et al.
# Submitted via: EZCDAudioConverter 2.1.7.1
#
DISCID=600dc819
DTITLE=V/A - Rockin' Bones 1/4
DYEAR=2006
DGENRE=
TTITLE0=Ronnie Dawson - Rockin' Bones
TTITLE1=Billy Eldridge - Let's Go Baby
TTITLE2=Elvis Presley - Baby Let's Play House
TTITLE3=John and Jackie - Little Girl
TTITLE4=Gene Vincent - Cat Man
TTITLE5=Jackie Gotroe - Lobo Jones
TTITLE6=Ronnie Allen - Juvenile Delinquent
TTITLE7=Danny Dell - Froggy Went A Courting
TTITLE8=Joe D. Johnson - Rattlesnake Daddy
TTITLE9=Al Downing - Down On The Farm
TTITLE10=Jackie Morningstar - Rockin' In The Graveyard
TTITLE11=Art Adams - Dancing Doll
TTITLE12=Johnny Powers - Long Blond Hair, Red Rose Lips
TTITLE13=Johnny Dollar - Action Packed
TTITLE14=Don Willis - Boppin' High School Baby
TTITLE15=Ricky Nelson - Believe What You Say
TTITLE16=Dwight Pullen - Sunglasses After Dark
TTITLE17=Link Wray - Rumble
TTITLE18=Buddy Holly and Bob Montgomery - Down The Line
TTITLE19=Larry Dowd - Pink Cadillac
TTITLE20=Joyce Green - Black Cadillac
TTITLE21=Commonwealth Jones - Who's Been Here
TTITLE22=Barbara Pittman - I Need A Man
TTITLE23=Bill Allen - Please Give Me Something
TTITLE24=Freddy and The Hitch-Hikers - Sinners
EXTD=
EXTT0=
EXTT1=
EXTT2=
EXTT3=
EXTT4=
EXTT5=
EXTT6=
EXTT7=
EXTT8=
EXTT9=
EXTT10=
EXTT11=
EXTT12=
EXTT13=
EXTT14=
EXTT15=
EXTT16=
EXTT17=
EXTT18=
EXTT19=
EXTT20=
EXTT21=
EXTT22=
EXTT23=
EXTT24=
PLAYORDER=
